<svg version="1.1" xmlns="http://www.w3.org/2000/svg" xmlns:xlink="http://www.w3.org/1999/xlink" width="250.38461" height="250.38461" viewBox="0,0,250.38461,250.38461"><g transform="translate(-114.8077,-56.9296)"><g stroke="none" stroke-miterlimit="10"><path d="M114.8077,182.1219c0,-69.1418 56.0505,-125.1923 125.1923,-125.1923c69.1418,0 125.1923,56.0505 125.1923,125.1923c0,69.1418 -56.0505,125.1923 -125.1923,125.1923c-69.1418,0 -125.1923,-56.0505 -125.1923,-125.1923z" fill="#ffffff" stroke-width="0"/><path d="M269.50037,71.43101c31.4,8.4 58.8,30.9 73.3,60.2c24.7,49.8 10.3,109.7 -34.3,143.1c-7.5,5.7 -21.2,13.1 -29.2,15.8c-4.8,1.7 -5.3,1.7 -7.6,0.2l-2.5,-1.6l-0.4,-22.3l-0.3,-22.3l-3.2,-5.6l-3.1,-5.5l8.4,-1.6c17.6,-3.3 30.7,-12.3 36.9,-25.2c9.2,-19.6 8,-43.5 -2.9,-57.9c-2.2,-2.9 -2.4,-3.8 -1.6,-6.8c1.5,-5.1 1.2,-15.8 -0.5,-21.7c-1.6,-5.1 -1.6,-5.2 -5.5,-5.2c-4.9,0 -14.7,3.6 -22.4,8.2l-5.8,3.5l-6.2,-1.6c-8.2,-2 -35.5,-2.1 -44.6,0l-6.4,1.5l-7.3,-4.2c-8.5,-4.8 -16.9,-7.7 -21.4,-7.2c-2.7,0.3 -3.4,0.9 -4.7,4.3c-1.6,4.6 -2,19.8 -0.5,23.4c0.8,2.1 0.5,3.2 -2.3,6.8c-6.3,8.2 -7.9,14.2 -7.9,28.8c0.1,15.5 2.2,23.8 8.6,33.4c6.9,10.4 17.4,16.5 34.4,20l8.1,1.6l-2.4,3.5c-1.3,1.9 -2.9,5.4 -3.5,7.7c-0.6,2.4 -1.8,4.5 -2.7,4.8c-6.8,2 -11.3,2.4 -16.2,1.4c-5.5,-1.2 -9.2,-4.3 -18.8,-16c-5.5,-6.6 -14.2,-9.7 -18.5,-6.5c-1.8,1.3 -1.7,1.4 0.9,3.7c7.8,6.9 10.6,10.3 14.4,17.7c2.3,4.4 5.6,9.2 7.3,10.6c4.8,4.1 12.8,5.9 23.1,5.4l8.8,-0.5v11.8c0,11.5 -0.1,11.9 -2.5,13.5c-2.2,1.5 -2.8,1.5 -7.7,-0.1c-13.2,-4.3 -30.7,-15.5 -42.2,-27.1c-38.4,-38.6 -44.4,-99.1 -14.3,-144.2c17.2,-25.6 42.2,-42.5 72.7,-49.3c13,-2.9 38.8,-2.1 52.5,1.5z" fill="#000000" stroke-width="1"/></g></g></svg>